<?xml version="1.0" standalone="no"?>
<!DOCTYPE svg PUBLIC "-//W3C//DTD SVG 20010904//EN"
 "http://www.w3.org/TR/2001/REC-SVG-20010904/DTD/svg10.dtd">
<svg version="1.0" xmlns="http://www.w3.org/2000/svg"
 width="500.000000pt" height="500.000000pt" viewBox="0 0 500.000000 500.000000"
 preserveAspectRatio="xMidYMid meet">

<g transform="translate(0.000000,500.000000) scale(0.100000,-0.100000)"
fill="#000000" stroke="none">
<path d="M1245 3389 c149 -81 273 -223 332 -377 29 -78 52 -194 53 -270 0
-117 -53 -290 -125 -403 -38 -60 -42 -86 -20 -129 21 -41 53 -60 101 -60 73 0
114 61 160 239 32 123 33 287 4 409 -45 188 -164 375 -309 486 -63 48 -171
110 -211 120 -16 4 -11 -1 15 -15z"/>
<path d="M1135 2639 c-336 -62 -607 -316 -691 -646 -28 -111 -39 -232 -27
-288 9 -39 10 -37 17 40 10 111 31 187 76 280 88 180 231 305 425 370 66 23
104 28 215 33 l135 5 33 33 c26 26 32 40 32 74 0 34 -6 48 -34 76 -30 30 -40
34 -82 33 -27 -1 -71 -5 -99 -10z"/>
<path d="M2220 2420 c0 -89 3 -110 14 -110 9 0 16 12 18 33 3 31 5 32 57 37
61 7 81 25 81 77 0 53 -28 73 -105 73 l-65 0 0 -110z m124 64 c35 -35 4 -77
-53 -72 -31 3 -36 7 -39 31 -2 16 -1 35 2 43 7 19 71 18 90 -2z"/>
<path d="M2560 2419 c0 -100 2 -110 18 -107 11 2 18 14 20 36 3 28 7 32 32 32
22 0 33 -8 50 -35 12 -19 28 -35 36 -35 18 0 18 15 -2 45 -15 23 -15 26 5 51
28 35 27 69 -4 99 -21 22 -33 25 -90 25 l-65 0 0 -111z m128 69 c7 -7 12 -21
12 -33 0 -31 -19 -45 -62 -45 l-38 0 0 45 0 45 38 0 c21 0 43 -5 50 -12z"/>
<path d="M2958 2514 c-30 -16 -58 -61 -58 -94 0 -34 28 -78 60 -95 96 -50 202
32 170 131 -22 64 -108 94 -172 58z m117 -39 c33 -33 33 -78 -1 -112 -21 -21
-32 -24 -62 -19 -44 6 -72 37 -72 78 0 39 40 78 80 78 19 0 40 -9 55 -25z"/>
<path d="M3285 2513 c3 -10 23 -60 42 -110 29 -77 39 -93 57 -93 21 0 25 9
104 211 2 5 -5 9 -15 9 -15 0 -27 -19 -52 -85 -18 -47 -34 -85 -36 -85 -2 0
-18 38 -36 85 -25 67 -36 85 -51 85 -15 0 -18 -4 -13 -17z"/>
<path d="M3880 2420 c0 -103 1 -110 20 -110 18 0 20 7 20 70 0 39 3 70 8 70 4
0 29 -32 57 -70 29 -42 56 -70 67 -70 16 0 18 11 18 110 0 91 -3 110 -15 110
-12 0 -15 -14 -15 -70 0 -38 -4 -70 -9 -70 -5 0 -32 32 -61 70 -33 44 -59 70
-71 70 -18 0 -19 -8 -19 -110z"/>
<path d="M4480 2523 c0 -3 14 -28 31 -54 l31 -49 -36 -49 c-41 -56 -43 -61
-17 -61 10 0 30 17 45 40 14 22 28 40 31 40 3 0 17 -18 31 -40 15 -23 35 -40
45 -40 25 0 24 4 -9 53 -16 23 -31 47 -35 53 -3 6 7 30 24 55 33 50 35 59 15
59 -8 0 -27 -16 -43 -36 l-27 -36 -29 36 c-26 32 -57 48 -57 29z"/>
<path d="M1091 2179 c-48 -47 -44 -99 12 -175 230 -311 654 -433 1017 -294 68
27 200 102 200 114 0 3 -33 -11 -74 -30 -107 -49 -193 -67 -316 -68 -127 0
-224 24 -344 87 -100 51 -224 171 -276 266 -19 34 -48 78 -64 97 -25 30 -34
34 -76 34 -41 0 -53 -5 -79 -31z"/>
</g>
</svg>
